<?xml version="1.0" encoding="UTF-8"?>
<svg xmlns="http://www.w3.org/2000/svg" width="32" height="32" viewBox="0 0 32 32" fill="none">
  <g id="DotsThreeCircle">
    <path id="Vector" opacity="0.2" d="M3.99999 16C3.99999 18.3734 4.70378 20.6935 6.02236 22.6668C7.34094 24.6402 9.21508 26.1783 11.4078 27.0866C13.6005 27.9948 16.0133 28.2324 18.3411 27.7694C20.6688 27.3064 22.807 26.1635 24.4853 24.4853C26.1635 22.8071 27.3064 20.6689 27.7694 18.3411C28.2324 16.0133 27.9948 13.6005 27.0865 11.4078C26.1783 9.21509 24.6402 7.34094 22.6668 6.02236C20.6934 4.70379 18.3734 4 16 4C12.8174 4 9.76515 5.26428 7.51471 7.51472C5.26428 9.76516 3.99999 12.8174 3.99999 16Z" fill="black"></path>
    <path id="Vector_2" d="M29 16C29 18.5712 28.2376 21.0846 26.8091 23.2224C25.3806 25.3602 23.3503 27.0265 20.9749 28.0104C18.5994 28.9944 15.9856 29.2518 13.4638 28.7502C10.9421 28.2486 8.62569 27.0105 6.80761 25.1924C4.98953 23.3743 3.7514 21.0579 3.24979 18.5362C2.74818 16.0144 3.00563 13.4005 3.98957 11.0251C4.97351 8.64967 6.63975 6.61935 8.77759 5.19089C10.9154 3.76243 13.4288 2.99999 16 2.99999C19.4467 3.00363 22.7512 4.37444 25.1884 6.81163C27.6256 9.24881 28.9964 12.5533 29 16ZM5 16C5 18.1756 5.64514 20.3023 6.85383 22.1113C8.06253 23.9202 9.78049 25.3301 11.7905 26.1627C13.8005 26.9952 16.0122 27.2131 18.146 26.7886C20.2798 26.3642 22.2398 25.3165 23.7782 23.7782C25.3166 22.2398 26.3642 20.2798 26.7886 18.146C27.2131 16.0122 26.9952 13.8005 26.1627 11.7905C25.3301 9.78049 23.9202 8.06252 22.1113 6.85383C20.3023 5.64513 18.1756 4.99999 16 4.99999C13.0836 5.0033 10.2877 6.16329 8.22548 8.22547C6.1633 10.2877 5.00331 13.0836 5 16ZM16 8.99999C15.7033 8.99999 15.4133 9.08797 15.1666 9.25279C14.92 9.41761 14.7277 9.65188 14.6142 9.92597C14.5007 10.2001 14.4709 10.5017 14.5288 10.7926C14.5867 11.0836 14.7296 11.3509 14.9393 11.5607C15.1491 11.7704 15.4164 11.9133 15.7074 11.9712C15.9983 12.0291 16.2999 11.9993 16.574 11.8858C16.8481 11.7723 17.0824 11.58 17.2472 11.3333C17.412 11.0867 17.5 10.7967 17.5 10.5C17.5 10.1022 17.342 9.72064 17.0607 9.43933C16.7794 9.15803 16.3978 8.99999 16 8.99999ZM16 14.5C15.7033 14.5 15.4133 14.588 15.1666 14.7528C14.92 14.9176 14.7277 15.1519 14.6142 15.426C14.5007 15.7001 14.4709 16.0017 14.5288 16.2926C14.5867 16.5836 14.7296 16.8509 14.9393 17.0607C15.1491 17.2704 15.4164 17.4133 15.7074 17.4712C15.9983 17.529 16.2999 17.4993 16.574 17.3858C16.8481 17.2723 17.0824 17.08 17.2472 16.8333C17.412 16.5867 17.5 16.2967 17.5 16C17.5 15.6022 17.342 15.2206 17.0607 14.9393C16.7794 14.658 16.3978 14.5 16 14.5ZM16 20C15.7033 20 15.4133 20.088 15.1666 20.2528C14.92 20.4176 14.7277 20.6519 14.6142 20.926C14.5007 21.2001 14.4709 21.5017 14.5288 21.7926C14.5867 22.0836 14.7296 22.3509 14.9393 22.5607C15.1491 22.7704 15.4164 22.9133 15.7074 22.9712C15.9983 23.0291 16.2999 22.9993 16.574 22.8858C16.8481 22.7723 17.0824 22.58 17.2472 22.3333C17.412 22.0867 17.5 21.7967 17.5 21.5C17.5 21.1022 17.342 20.7206 17.0607 20.4393C16.7794 20.158 16.3978 20 16 20Z" fill="black"></path>
  </g>
</svg>
