<svg width="202px" height="56px" viewBox="0 0 202 56" version="1.1" xmlns="http://www.w3.org/2000/svg" xmlns:xlink="http://www.w3.org/1999/xlink">
    <defs>
        <polygon id="path-1" points="9.59999998e-05 55.68 55.450656 55.68 55.450656 0.229536 9.59999998e-05 0.229536"></polygon>
    </defs>
    <g id="Symbols" stroke="none" stroke-width="1" fill="none" fill-rule="evenodd">
        <g id="Header" transform="translate(-150.000000, -17.000000)">
            <g id="Logo" transform="translate(150.000000, 17.000000)">
                <g id="Group-7" transform="translate(0.000000, 0.090560)">
                    <g id="Group-4">
                        <mask id="mask-2" fill="white">
                            <use xlink:href="#path-1"></use>
                        </mask>
                        <g id="Clip-3"></g>
                        <path d="M27.725216,0.229536 C12.412896,0.229536 9.59999998e-05,12.642656 9.59999998e-05,27.954656 C9.59999998e-05,42.150496 10.669536,53.852576 24.426336,55.483936 L24.426336,43.475936 C17.247776,41.957216 11.859936,35.585696 11.859936,27.954656 C11.859936,19.192416 18.962976,12.089376 27.725216,12.089376 C36.487456,12.089376 43.590816,19.192416 43.590816,27.954656 C43.590816,36.716896 36.487456,43.820256 27.725216,43.820256 C27.625376,43.820256 27.526176,43.818336 27.426976,43.816416 L27.426976,55.676256 C27.526176,55.677216 27.625376,55.680096 27.725216,55.680096 C43.037536,55.680096 55.450656,43.266976 55.450656,27.954656 C55.450656,12.642656 43.037536,0.229536 27.725216,0.229536" id="Fill-2" fill="#854F54" mask="url(#mask-2)"></path>
                    </g>
                    <path d="M34.930048,27.915616 C34.930048,23.783776 31.645888,20.434336 27.594688,20.434336 C23.543488,20.434336 20.259328,23.783776 20.259328,27.915616 C20.259328,32.047456 23.543488,35.396896 27.594688,35.396896 C31.645888,35.396896 34.930048,32.047456 34.930048,27.915616" id="Fill-5" fill="#FB2E01"></path>
                    <polygon id="Fill-1" fill="#854F54" points="27.42688 55.68 43.73312 55.68 43.73312 43.82016 27.42688 43.82016"></polygon>
                </g>
                <path d="M68.116,18.884 C68.578,19.39 68.842,20.072 68.842,20.842 C68.842,23.438 65.608,23.746 65.608,25.264 C65.608,25.946 66.136,26.518 67.346,26.518 C68.446,26.518 69.37,25.99 70.052,25.154 L71.834,27.156 C70.668,28.542 68.908,29.29 67.016,29.29 C64.178,29.29 62.44,27.86 62.44,25.814 C62.44,22.602 66.114,22.36 66.114,20.512 C66.114,20.16 65.938,19.786 65.696,19.588 L68.116,18.884 Z M67.06,14.132 C66.092,14.132 65.278,14.946 65.278,15.914 C65.278,16.882 66.092,17.696 67.06,17.696 C68.028,17.696 68.842,16.882 68.842,15.914 C68.842,14.946 68.028,14.132 67.06,14.132 Z M78.882,25.264 C74.438,25.264 71.204,22.096 71.204,17.674 C71.204,13.252 74.438,10.084 78.882,10.084 C83.304,10.084 86.538,13.252 86.538,17.674 C86.538,19.742 85.812,21.546 84.624,22.866 L85.702,24.12 L83.524,25.902 L82.336,24.538 C81.324,25 80.136,25.264 78.882,25.264 Z M78.882,22.492 C79.432,22.492 79.938,22.404 80.4,22.25 L78.794,20.358 L80.972,18.576 L82.578,20.468 C83.062,19.698 83.326,18.73 83.326,17.674 C83.326,14.924 81.588,12.856 78.882,12.856 C76.154,12.856 74.416,14.924 74.416,17.674 C74.416,20.402 76.154,22.492 78.882,22.492 Z M95.06,25.264 C99.526,25.264 101.682,22.756 101.682,19.126 L101.682,10.326 L98.492,10.326 L98.492,19.038 C98.492,21.084 97.326,22.492 95.06,22.492 C92.794,22.492 91.606,21.084 91.606,19.038 L91.606,10.326 L88.438,10.326 L88.438,19.126 C88.438,22.756 90.594,25.264 95.06,25.264 Z M113.196,5.816 L110.622,5.816 L107.674,8.984 L109.632,8.984 L113.196,5.816 Z M114.67,25 L114.67,22.25 L107.41,22.25 L107.41,18.906 L114.516,18.906 L114.516,16.156 L107.41,16.156 L107.41,13.076 L114.67,13.076 L114.67,10.326 L104.286,10.326 L104.286,25 L114.67,25 Z M129.294,25.264 C132.506,25.264 134.376,23.482 135.41,21.656 L132.726,20.358 C132.11,21.546 130.79,22.492 129.294,22.492 C126.61,22.492 124.674,20.446 124.674,17.674 C124.674,14.902 126.61,12.856 129.294,12.856 C130.79,12.856 132.11,13.802 132.726,14.99 L135.41,13.67 C134.376,11.822 132.506,10.084 129.294,10.084 C124.872,10.084 121.462,13.142 121.462,17.674 C121.462,22.184 124.872,25.264 129.294,25.264 Z M143.954,25.264 C139.51,25.264 136.276,22.096 136.276,17.674 C136.276,13.252 139.51,10.084 143.954,10.084 C148.376,10.084 151.61,13.252 151.61,17.674 C151.61,22.096 148.376,25.264 143.954,25.264 Z M143.954,22.492 C146.66,22.492 148.398,20.402 148.398,17.674 C148.398,14.924 146.66,12.856 143.954,12.856 C141.226,12.856 139.488,14.924 139.488,17.674 C139.488,20.402 141.226,22.492 143.954,22.492 Z M160.638,25.264 C163.85,25.264 165.72,23.482 166.754,21.656 L164.07,20.358 C163.454,21.546 162.134,22.492 160.638,22.492 C157.954,22.492 156.018,20.446 156.018,17.674 C156.018,14.902 157.954,12.856 160.638,12.856 C162.134,12.856 163.454,13.802 164.07,14.99 L166.754,13.67 C165.72,11.822 163.85,10.084 160.638,10.084 C156.216,10.084 152.806,13.142 152.806,17.674 C152.806,22.184 156.216,25.264 160.638,25.264 Z M181.524,25 L181.524,10.326 L178.378,10.326 L178.378,16.09 L171.448,16.09 L171.448,10.326 L168.324,10.326 L168.324,25 L171.448,25 L171.448,18.818 L178.378,18.818 L178.378,25 L181.524,25 Z M194.49,25 L194.49,22.25 L187.23,22.25 L187.23,18.906 L194.336,18.906 L194.336,16.156 L187.23,16.156 L187.23,13.076 L194.49,13.076 L194.49,10.326 L184.106,10.326 L184.106,25 L194.49,25 Z M79.358,46 L79.358,31.326 L74.958,31.326 L71.394,40.5 L67.83,31.326 L63.452,31.326 L63.452,46 L66.576,46 L66.576,35.418 L70.712,46 L72.076,46 L76.212,35.418 L76.212,46 L79.358,46 Z M92.346,46 L92.346,43.25 L85.086,43.25 L85.086,39.906 L92.192,39.906 L92.192,37.156 L85.086,37.156 L85.086,34.076 L92.346,34.076 L92.346,31.326 L81.962,31.326 L81.962,46 L92.346,46 Z M106.97,46.264 C110.182,46.264 112.052,44.482 113.086,42.656 L110.402,41.358 C109.786,42.546 108.466,43.492 106.97,43.492 C104.286,43.492 102.35,41.446 102.35,38.674 C102.35,35.902 104.286,33.856 106.97,33.856 C108.466,33.856 109.786,34.802 110.402,35.99 L113.086,34.67 C112.052,32.822 110.182,31.084 106.97,31.084 C102.548,31.084 99.138,34.142 99.138,38.674 C99.138,43.184 102.548,46.264 106.97,46.264 Z M121.63,46.264 C117.186,46.264 113.952,43.096 113.952,38.674 C113.952,34.252 117.186,31.084 121.63,31.084 C126.052,31.084 129.286,34.252 129.286,38.674 C129.286,43.096 126.052,46.264 121.63,46.264 Z M121.63,43.492 C124.336,43.492 126.074,41.402 126.074,38.674 C126.074,35.924 124.336,33.856 121.63,33.856 C118.902,33.856 117.164,35.924 117.164,38.674 C117.164,41.402 118.902,43.492 121.63,43.492 Z M147.092,46 L147.092,31.326 L142.692,31.326 L139.128,40.5 L135.564,31.326 L131.186,31.326 L131.186,46 L134.31,46 L134.31,35.418 L138.446,46 L139.81,46 L143.946,35.418 L143.946,46 L147.092,46 Z M152.82,46 L149.696,46 L149.696,31.326 L156.56,31.326 C159.75,31.326 161.488,33.482 161.488,36.056 C161.488,38.608 159.728,40.764 156.56,40.764 L152.82,40.764 L152.82,46 Z M156.12,38.014 C157.352,38.014 158.298,37.266 158.298,36.056 C158.298,34.824 157.352,34.076 156.12,34.076 L152.82,34.076 L152.82,38.014 L156.12,38.014 Z M175.048,46 L171.44,46 L168.558,40.786 L166.27,40.786 L166.27,46 L163.146,46 L163.146,31.326 L170.01,31.326 C173.068,31.326 174.96,33.328 174.96,36.056 C174.96,38.63 173.31,40.038 171.726,40.412 L175.048,46 Z M169.57,38.036 C170.802,38.036 171.748,37.288 171.748,36.034 C171.748,34.824 170.802,34.076 169.57,34.076 L166.27,34.076 L166.27,38.036 L169.57,38.036 Z M183.966,46.264 C179.522,46.264 176.288,43.096 176.288,38.674 C176.288,34.252 179.522,31.084 183.966,31.084 C188.388,31.084 191.622,34.252 191.622,38.674 C191.622,43.096 188.388,46.264 183.966,46.264 Z M183.966,43.492 C186.672,43.492 188.41,41.402 188.41,38.674 C188.41,35.924 186.672,33.856 183.966,33.856 C181.238,33.856 179.5,35.924 179.5,38.674 C179.5,41.402 181.238,43.492 183.966,43.492 Z M195.986,41.512 L198.406,40.808 C198.164,40.61 197.988,40.236 197.988,39.884 C197.988,38.036 201.662,37.794 201.662,34.582 C201.662,32.536 199.924,31.106 197.086,31.106 C195.194,31.106 193.434,31.854 192.268,33.24 L194.05,35.242 C194.732,34.406 195.656,33.878 196.756,33.878 C197.966,33.878 198.494,34.45 198.494,35.132 C198.494,36.65 195.26,36.958 195.26,39.554 C195.26,40.324 195.524,41.006 195.986,41.512 Z M197.042,46.242 C198.01,46.242 198.824,45.428 198.824,44.46 C198.824,43.492 198.01,42.678 197.042,42.678 C196.074,42.678 195.26,43.492 195.26,44.46 C195.26,45.428 196.074,46.242 197.042,46.242 Z" id="¿QUÉ-COCHE-ME-COMPRO" fill="#FB2E01"></path>
            </g>
        </g>
    </g>
</svg>